PathFileType	4	(X/Y/Z)	/Users/itak/Documents/Research/Walk-IL/dataset/trc/00111_00007.trc
DataRate	CameraRate	NumFrames	NumMarkers	Units	OrigDataRate	OrigDataStartFrame	OrigNumFrames
100.000000	100.000000	4	53	mm	100.000000	69	552
Frame#	Time	RPSI			LPSI			L3			STRN			T10			C7			CLAV			RBAK			LBAK			LSHO			LUPA			LAEL			LAOL			LWTS			LWPS			LFRA			LIFD			LHPS			LHTS			RSHO			RUPA			RAEL			RAOL			RWTS			RWPS			RFRA			RIFD			RHTS			RHPS			RBHD			LFHD			RFHD			LBHD			LHIP			RHIP			RASI			LASI			LKNE			LTHI			LANK			LTIP			LTOE			LMT1			LMT5			LHEE			RKNE			RTHI			RANK			RTIP			RTOE			RMT1			RMT5			RHEE			
		X1	Y1	Z1	X2	Y2	Z2	X3	Y3	Z3	X4	Y4	Z4	X5	Y5	Z5	X6	Y6	Z6	X7	Y7	Z7	X8	Y8	Z8	X9	Y9	Z9	X10	Y10	Z10	X11	Y11	Z11	X12	Y12	Z12	X13	Y13	Z13	X14	Y14	Z14	X15	Y15	Z15	X16	Y16	Z16	X17	Y17	Z17	X18	Y18	Z18	X19	Y19	Z19	X20	Y20	Z20	X21	Y21	Z21	X22	Y22	Z22	X23	Y23	Z23	X24	Y24	Z24	X25	Y25	Z25	X26	Y26	Z26	X27	Y27	Z27	X28	Y28	Z28	X29	Y29	Z29	X30	Y30	Z30	X31	Y31	Z31	X32	Y32	Z32	X33	Y33	Z33	X34	Y34	Z34	X35	Y35	Z35	X36	Y36	Z36	X37	Y37	Z37	X38	Y38	Z38	X39	Y39	Z39	X40	Y40	Z40	X41	Y41	Z41	X42	Y42	Z42	X43	Y43	Z43	X44	Y44	Z44	X45	Y45	Z45	X46	Y46	Z46	X47	Y47	Z47	X48	Y48	Z48	X49	Y49	Z49	X50	Y50	Z50	X51	Y51	Z51	X52	Y52	Z52	X53	Y53	Z53	

70	0.6900000000000001	660.6310424804688	1126.871704101562	-272.1441650390625	666.2568969726562	1127.670776367188	-406.3808288574219	657.6986083984375	1159.1064453125	-341.9615783691406	871.2544555664062	1364.516723632812	-339.2163391113281	616.4259643554688	1308.251098632812	-346.7060546875	641.627685546875	1600.318969726562	-363.3870849609375	831.3843383789062	1498.69287109375	-345.2629089355469	593.9136962890625	1415.013916015625	-274.445068359375	636.897216796875	1580.11376953125	-462.8747253417969	726.15771484375	1571.320434570312	-527.6403198242188	711.18603515625	1439.261962890625	-598.1775512695312	737.7095336914062	1220.182495117188	-612.65673828125	664.3313598632812	1207.181030273438	-566.0413818359375	836.6995849609375	967.7733764648438	-546.3663330078125	761.0624389648438	938.3927612304688	-584.6019287109375	758.1224365234375	1104.429077148438	-610.3319702148438	847.14599609375	775.5734252929688	-514.7567749023438	791.2501831054688	863.7158203125	-579.146240234375	856.0559692382812	879.0511474609375	-553.34814453125	687.9420166015625	1586.281494140625	-180.7118530273438	669.4935302734375	1513.376953125	-116.4105606079102	670.3746948242188	1220.4697265625	-86.17694854736328	662.3505249023438	1216.965576171875	-181.8721618652344	819.1746826171875	981.545166015625	-103.484001159668	748.0105590820312	963.7329711914062	-66.57498168945312	697.09326171875	1148.40185546875	-70.26499938964844	848.0675048828125	787.3400268554688	-117.8020553588867	852.4869384765625	876.0110473632812	-98.70882415771484	788.3658447265625	865.5822143554688	-62.04621887207031	675.98681640625	1773.771606445312	-281.3496398925781	831.8843994140625	1847.841430664062	-417.6573181152344	832.2476806640625	1855.84765625	-287.8724670410156	665.0382080078125	1768.75732421875	-416.2302856445312	758.5158081054688	1037.750122070312	-509.7622985839844	783.741455078125	1030.942504882812	-150.7303771972656	866.3906860351562	1105.7412109375	-202.5652465820312	868.2299194335938	1104.255981445312	-468.5632629394531	783.3187255859375	536.2467651367188	-477.0559692382812	762.1881103515625	681.4703369140625	-506.6006774902344	674.68603515625	33.1649169921875	-469.0299682617188	684.3616943359375	288.7488403320312	-504.7397766113281	904.2380981445312	35.64492797851562	-402.4897155761719	821.6358032226562	41.91024780273438	-372.2364196777344	799.6395874023438	31.78244972229004	-489.9215698242188	604.0219116210938	35.07980346679688	-410.3531799316406	763.666259765625	538.4912719726562	-186.2544097900391	796.7417602539062	818.3468627929688	-157.6028900146484	653.2257690429688	28.72325134277344	-203.5138854980469	734.9956665039062	406.3154602050781	-175.1311950683594	885.379150390625	41.90822601318359	-258.0682373046875	823.8545532226562	30.63742065429688	-300.255859375	787.2196655273438	37.40692520141602	-183.7582092285156	595.3641967773438	31.69175910949707	-251.7952270507812	
71	0.7000000000000001	660.55126953125	1126.860107421875	-272.0850524902344	666.1233520507812	1127.6552734375	-406.2939147949219	657.6622924804688	1159.108520507812	-341.8748474121094	871.21923828125	1364.51171875	-339.2005310058594	616.3858032226562	1308.302978515625	-346.6298522949219	641.6369018554688	1600.339599609375	-363.3440551757812	831.3629150390625	1498.703979492188	-345.2463684082031	593.8878173828125	1415.05126953125	-274.3502807617188	636.8861083984375	1580.133178710938	-462.8293762207031	726.1360473632812	1571.323974609375	-527.626708984375	711.1281127929688	1439.25927734375	-598.13525390625	737.5963134765625	1220.12939453125	-612.5377807617188	664.2427978515625	1207.194213867188	-565.9071044921875	836.58154296875	967.785400390625	-546.1619873046875	760.9725341796875	938.3836669921875	-584.3732299804688	757.9984741210938	1104.3955078125	-610.1405639648438	847.0321655273438	775.581787109375	-514.4756469726562	791.0938110351562	863.702880859375	-578.8668212890625	855.9599609375	879.0711059570312	-553.0816040039062	687.9598999023438	1586.303833007812	-180.6614532470703	669.5281372070312	1513.391357421875	-116.3688278198242	670.30859375	1220.472412109375	-86.1871337890625	662.3004760742188	1217.00146484375	-181.8970642089844	819.1393432617188	981.55859375	-103.4848480224609	747.9591064453125	963.7293701171875	-66.61317443847656	697.0132446289062	1148.3974609375	-70.28707122802734	848.0556640625	787.3605346679688	-117.8581161499023	852.4646606445312	876.0224609375	-98.69999694824219	788.330322265625	865.5872192382812	-62.09702682495117	675.9730834960938	1773.7080078125	-281.28759765625	831.8117065429688	1847.949462890625	-417.5506591796875	832.201171875	1855.889038085938	-287.7820434570312	665.0188598632812	1768.728759765625	-416.1729736328125	758.4146118164062	1037.752075195312	-509.6792297363281	783.7130737304688	1030.932861328125	-150.6681365966797	866.3524169921875	1105.7509765625	-202.5326080322266	868.1648559570312	1104.269409179688	-468.5380554199219	783.2968139648438	536.2681274414062	-477.031005859375	762.1388549804688	681.490966796875	-506.5621643066406	674.6878051757812	33.16950225830078	-469.0292053222656	684.3466186523438	288.7485046386719	-504.7180786132812	904.2361450195312	35.64247512817383	-402.4898986816406	821.634521484375	41.90957260131836	-372.2351379394531	799.6403198242188	31.781982421875	-489.9218139648438	604.0198364257812	35.07856369018555	-410.3473205566406	763.6768188476562	538.4899291992188	-186.2327423095703	796.7395629882812	818.3435668945312	-157.5762176513672	653.2332153320312	28.72443771362305	-203.5137634277344	735.0093383789062	406.3061828613281	-175.1234893798828	885.381103515625	41.90529251098633	-258.0713195800781	823.8544921875	30.63674545288086	-300.258544921875	787.2191772460938	37.40646362304688	-183.7622528076172	595.3668212890625	31.70186233520508	-251.7935943603516	
72	0.71	660.4828491210938	1126.853637695312	-272.0192260742188	665.9962768554688	1127.636840820312	-406.2112426757812	657.6249389648438	1159.112426757812	-341.7857666015625	871.1865234375	1364.505004882812	-339.1820068359375	616.3504638671875	1308.351806640625	-346.55615234375	641.644287109375	1600.357421875	-363.301025390625	831.3406372070312	1498.711303710938	-345.22607421875	593.8648071289062	1415.080688476562	-274.2578735351562	636.8739013671875	1580.150756835938	-462.78369140625	726.1136474609375	1571.324829101562	-527.6112670898438	711.0724487304688	1439.257202148438	-598.093994140625	737.4923706054688	1220.078125	-612.4290771484375	664.1563720703125	1207.2099609375	-565.7822265625	836.4818115234375	967.800537109375	-545.97265625	760.9000854492188	938.3739013671875	-584.1629028320312	757.892822265625	1104.37353515625	-609.9654541015625	846.9483032226562	775.5877075195312	-514.2179565429688	790.956787109375	863.6924438476562	-578.603271484375	855.8765258789062	879.0990600585938	-552.8405151367188	687.9754028320312	1586.32275390625	-180.6106872558594	669.5574951171875	1513.401733398438	-116.3295516967773	670.2359619140625	1220.469116210938	-86.20283508300781	662.24951171875	1217.03271484375	-181.9283599853516	819.1036376953125	981.5698852539062	-103.489143371582	747.9017333984375	963.7216796875	-66.66188049316406	696.926513671875	1148.386474609375	-70.31524658203125	848.0505981445312	787.3786010742188	-117.9192352294922	852.43212890625	876.00341796875	-98.67396545410156	788.2911987304688	865.5884399414062	-62.15576934814453	675.951171875	1773.650512695312	-281.2260131835938	831.7459106445312	1848.043212890625	-417.4527893066406	832.1583251953125	1855.925170898438	-287.704833984375	664.9989013671875	1768.699584960938	-416.119873046875	758.3232421875	1037.754638671875	-509.60009765625	783.6876831054688	1030.922241210938	-150.6051940917969	866.319091796875	1105.760375976562	-202.4950561523438	868.10888671875	1104.281372070312	-468.512939453125	783.2694702148438	536.2871704101562	-477.0061950683594	762.0894165039062	681.509765625	-506.5240478515625	674.688232421875	33.17220306396484	-469.0281677246094	684.3312377929688	288.7512512207031	-504.7004089355469	904.2360229492188	35.63837051391602	-402.4886779785156	821.6320190429688	41.90787506103516	-372.2328186035156	799.6408081054688	31.78144836425781	-489.9210815429688	604.0185546875	35.07855606079102	-410.3411560058594	763.6845092773438	538.4881591796875	-186.2105102539062	796.7372436523438	818.3373413085938	-157.5499420166016	653.2387084960938	28.7269287109375	-203.5135955810547	735.0195922851562	406.29931640625	-175.1173248291016	885.3817749023438	41.90208435058594	-258.0747985839844	823.854736328125	30.63588333129883	-300.26171875	787.2190551757812	37.40619277954102	-183.7657775878906	595.3675537109375	31.70704650878906	-251.7930145263672	
73	0.72	660.4249267578125	1126.852783203125	-271.9471740722656	665.8745727539062	1127.618041992188	-406.1343383789062	657.5844116210938	1159.119506835938	-341.6947021484375	871.1566772460938	1364.497314453125	-339.1605834960938	616.3208618164062	1308.395874023438	-346.4869995117188	641.650390625	1600.371704101562	-363.2575378417969	831.317138671875	1498.715698242188	-345.2014465332031	593.8434448242188	1415.101196289062	-274.1713256835938	636.8604736328125	1580.166381835938	-462.7384033203125	726.090087890625	1571.322509765625	-527.5936279296875	711.019287109375	1439.255615234375	-598.0537109375	737.3973999023438	1220.02978515625	-612.3316650390625	664.0739135742188	1207.227905273438	-565.6707153320312	836.4009399414062	967.8170776367188	-545.7994995117188	760.84228515625	938.3624877929688	-583.9732055664062	757.8040161132812	1104.358642578125	-609.8081665039062	846.89404296875	775.5933837890625	-513.9866943359375	790.8406982421875	863.6813354492188	-578.3588256835938	855.8064575195312	879.1290893554688	-552.628662109375	687.988037109375	1586.3369140625	-180.5610504150391	669.5805053710938	1513.407348632812	-116.2923355102539	670.159912109375	1220.4599609375	-86.22301483154297	662.1986694335938	1217.058349609375	-181.9645233154297	819.0682983398438	981.5783081054688	-103.4964752197266	747.8388061523438	963.7096557617188	-66.71947479248047	696.8369750976562	1148.369506835938	-70.34766387939453	848.0497436523438	787.3914184570312	-117.98291015625	852.3810424804688	875.9403686523438	-98.62242126464844	788.2489013671875	865.5852661132812	-62.21875381469727	675.9216918945312	1773.59912109375	-281.1650085449219	831.687744140625	1848.121459960938	-417.3643493652344	832.1174926757812	1855.9560546875	-287.6389465332031	664.9784545898438	1768.671508789062	-416.0709533691406	758.2420654296875	1037.757934570312	-509.5251159667969	783.6671142578125	1030.912353515625	-150.5409851074219	866.2915649414062	1105.770141601562	-202.4532012939453	868.0616455078125	1104.292236328125	-468.4879760742188	783.2350463867188	536.3050537109375	-476.9811096191406	762.0390625	681.5271606445312	-506.4844665527344	674.6875610351562	33.17368698120117	-469.0261535644531	684.313232421875	288.7581176757812	-504.6872253417969	904.2388916015625	35.63293838500977	-402.4857482910156	821.6288452148438	41.90544891357422	-372.2297058105469	799.6410522460938	31.78091430664062	-489.919677734375	604.0178833007812	35.0799446105957	-410.334228515625	763.6890258789062	538.4871215820312	-186.1879577636719	796.7335205078125	818.3292846679688	-157.5222625732422	653.2420043945312	28.73081016540527	-203.5134429931641	735.027099609375	406.2945556640625	-175.1117858886719	885.3811645507812	41.89900588989258	-258.0788879394531	823.8550415039062	30.63470840454102	-300.2652587890625	787.2189331054688	37.40600967407227	-183.7685852050781	595.3668823242188	31.7083854675293	-251.7929992675781	
